<svg width="309" height="82" viewBox="0 0 309 82" fill="none" xmlns="http://www.w3.org/2000/svg">
<path d="M8.5 1.48633H71.5L77 5.98633H308V70.9863L298.5 80.4863H8.5H1V69.9863L3 67.9863V49.9863L1 48.4863V1.48633H8.5Z" fill="#181818"/>
<path d="M8.5 1.48633H71.5L77 5.98633H308V70.9863L298.5 80.4863H8.5M8.5 1.48633V80.4863M8.5 1.48633H1V48.4863L3 49.9863V67.9863L1 69.9863V80.4863H8.5" stroke="#53212B" stroke-width="2"/>
<path d="M108.144 51.4863H107.448C107.288 51.4863 107.208 51.3903 107.208 51.1983V36.3423C107.208 36.1503 107.288 36.0543 107.448 36.0543H112.968C114.008 36.0543 114.832 36.3583 115.44 36.9663C116.048 37.5743 116.352 38.4063 116.352 39.4623V42.2703C116.352 43.3263 116.048 44.1583 115.44 44.7663C114.832 45.3743 114.008 45.6783 112.968 45.6783H108.648C108.488 45.6783 108.408 45.7423 108.408 45.8703V51.1983C108.408 51.3903 108.32 51.4863 108.144 51.4863ZM108.648 44.5743H112.872C113.608 44.5743 114.168 44.3743 114.552 43.9743C114.936 43.5583 115.128 42.9743 115.128 42.2223V39.5103C115.128 38.7423 114.936 38.1583 114.552 37.7583C114.168 37.3423 113.608 37.1343 112.872 37.1343H108.648C108.488 37.1343 108.408 37.2063 108.408 37.3503V44.3823C108.408 44.5103 108.488 44.5743 108.648 44.5743ZM127.666 51.4863H120.034C119.874 51.4863 119.794 51.3903 119.794 51.1983V36.3423C119.794 36.1503 119.874 36.0543 120.034 36.0543H120.73C120.906 36.0543 120.994 36.1503 120.994 36.3423V50.1423C120.994 50.2863 121.074 50.3583 121.234 50.3583H127.666C127.858 50.3583 127.954 50.4463 127.954 50.6223V51.2223C127.954 51.3983 127.858 51.4863 127.666 51.4863ZM130.214 51.4863H129.47C129.294 51.4863 129.238 51.3903 129.302 51.1983L134.078 36.3423C134.126 36.1503 134.238 36.0543 134.414 36.0543H135.542C135.702 36.0543 135.814 36.1503 135.878 36.3423L140.654 51.1983C140.702 51.3903 140.646 51.4863 140.486 51.4863H139.718C139.558 51.4863 139.454 51.3903 139.406 51.1983L138.11 47.3583H131.822L130.526 51.1983C130.462 51.3903 130.358 51.4863 130.214 51.4863ZM134.918 37.3743L132.158 46.2783H137.798L135.014 37.3743H134.918ZM147.643 51.4863H146.947C146.771 51.4863 146.683 51.3903 146.683 51.1983V45.6543L142.027 36.3423C141.931 36.1503 141.987 36.0543 142.195 36.0543H143.059C143.203 36.0543 143.315 36.1503 143.395 36.3423L147.235 44.1903H147.355L151.171 36.3423C151.251 36.1503 151.363 36.0543 151.507 36.0543H152.395C152.571 36.0543 152.627 36.1503 152.563 36.3423L147.883 45.6543V51.1983C147.883 51.3903 147.803 51.4863 147.643 51.4863ZM162.589 51.4863H161.893C161.733 51.4863 161.653 51.3903 161.653 51.1983V36.3423C161.653 36.1503 161.733 36.0543 161.893 36.0543H162.541C162.685 36.0543 162.781 36.1023 162.829 36.1983L170.197 48.8703H170.293V36.3423C170.293 36.1503 170.381 36.0543 170.557 36.0543H171.229C171.405 36.0543 171.493 36.1503 171.493 36.3423V51.1983C171.493 51.3903 171.405 51.4863 171.229 51.4863H170.677C170.533 51.4863 170.405 51.3983 170.293 51.2223L162.949 38.6463H162.853V51.1983C162.853 51.3903 162.765 51.4863 162.589 51.4863ZM178.768 50.4063H181.504C182.24 50.4063 182.8 50.2063 183.184 49.8063C183.584 49.3903 183.784 48.7983 183.784 48.0303V39.5103C183.784 38.7423 183.584 38.1583 183.184 37.7583C182.8 37.3423 182.24 37.1343 181.504 37.1343H178.768C178.032 37.1343 177.472 37.3423 177.088 37.7583C176.704 38.1743 176.512 38.7583 176.512 39.5103V48.0303C176.512 48.7823 176.704 49.3663 177.088 49.7823C177.472 50.1983 178.032 50.4063 178.768 50.4063ZM181.624 51.4863H178.672C177.632 51.4863 176.808 51.1823 176.2 50.5743C175.608 49.9663 175.312 49.1343 175.312 48.0783V39.4623C175.312 38.4063 175.608 37.5743 176.2 36.9663C176.808 36.3583 177.632 36.0543 178.672 36.0543H181.624C182.664 36.0543 183.48 36.3583 184.072 36.9663C184.68 37.5743 184.984 38.4063 184.984 39.4623V48.0783C184.984 49.1343 184.68 49.9663 184.072 50.5743C183.48 51.1823 182.664 51.4863 181.624 51.4863ZM192.369 51.4863H191.169C190.993 51.4863 190.881 51.3903 190.833 51.1983L187.545 36.3423C187.497 36.1503 187.577 36.0543 187.785 36.0543H188.577C188.753 36.0543 188.857 36.1503 188.889 36.3423L191.745 50.1183H191.865L195.513 36.3183C195.545 36.1423 195.649 36.0543 195.825 36.0543H196.737C196.929 36.0543 197.041 36.1423 197.073 36.3183L200.745 50.1183H200.865L203.697 36.3423C203.729 36.1503 203.841 36.0543 204.033 36.0543H204.849C205.041 36.0543 205.113 36.1503 205.065 36.3423L201.777 51.1983C201.745 51.3903 201.641 51.4863 201.465 51.4863H200.241C200.065 51.4863 199.953 51.3903 199.905 51.1983L196.353 37.6623H196.257L192.681 51.1983C192.633 51.3903 192.529 51.4863 192.369 51.4863Z" fill="#BD3944"/>
</svg>
