<svg width="25" height="25" viewBox="0 0 25 25" fill="none" xmlns="http://www.w3.org/2000/svg">
<path d="M3.02851 11.8789C3.02851 10.2249 4.37451 8.8789 6.02851 8.8789H10.7925C9.76851 7.7359 9.81351 5.8539 10.9075 4.7579C11.4704 4.19598 12.2332 3.88037 13.0285 3.88037C13.8238 3.88037 14.5867 4.19598 15.1495 4.7579L22.2705 11.8789L15.1495 18.9999C14.5867 19.5618 13.8238 19.8774 13.0285 19.8774C12.2332 19.8774 11.4704 19.5618 10.9075 18.9999C9.81251 17.9059 9.76751 16.0209 10.7925 14.8789H6.02851C4.37451 14.8789 3.02851 13.5329 3.02851 11.8789ZM15.6145 10.8789L6.02851 10.8789C5.77103 10.8904 5.52791 11.0008 5.34978 11.1871C5.17165 11.3734 5.07224 11.6212 5.07224 11.8789C5.07224 12.1366 5.17165 12.3844 5.34978 12.5707C5.52791 12.757 5.77103 12.8674 6.02851 12.8789L15.6145 12.8789L12.3215 16.1719C12.1395 16.3623 12.0379 16.6155 12.0379 16.8789C12.0379 17.1423 12.1395 17.3955 12.3215 17.5859C12.4143 17.6789 12.5245 17.7526 12.6458 17.8029C12.7671 17.8532 12.8972 17.8791 13.0285 17.8791C13.1598 17.8791 13.2899 17.8532 13.4112 17.8029C13.5325 17.7526 13.6427 17.6789 13.7355 17.5859L19.4425 11.8789L13.7355 6.1719C13.6427 6.07896 13.5325 6.00522 13.4112 5.95491C13.2899 5.9046 13.1598 5.8787 13.0285 5.8787C12.8972 5.8787 12.7671 5.9046 12.6458 5.95491C12.5245 6.00522 12.4143 6.07896 12.3215 6.1719C12.1395 6.36227 12.0379 6.61551 12.0379 6.8789C12.0379 7.14229 12.1395 7.39554 12.3215 7.5859L15.6145 10.8789Z" fill="white" fillOpacity="0.5"/>
</svg>
